<?xml version="1.0" standalone="no"?>
<!DOCTYPE svg PUBLIC "-//W3C//DTD SVG 20010904//EN"
 "http://www.w3.org/TR/2001/REC-SVG-20010904/DTD/svg10.dtd">
<svg version="1.0" xmlns="http://www.w3.org/2000/svg"
 width="164.000000pt" height="164.000000pt" viewBox="0 0 164.000000 164.000000"
 preserveAspectRatio="xMidYMid meet">
<metadata>
Created by potrace 1.14, written by Peter Selinger 2001-2017
</metadata>
<g transform="translate(0.000000,164.000000) scale(0.100000,-0.100000)"
fill="#000000" stroke="none">
<path d="M275 820 l0 -600 546 1 546 0 0 600 0 599 -546 0 -546 0 0 -600z
m1061 567 c6 -6 5 -1129 -1 -1135 -2 -3 -235 -5 -517 -5 l-513 0 -3 571 -2
571 22 3 c36 5 1009 1 1014 -5z"/>
<path d="M762 1324 c-23 -26 -42 -53 -42 -61 0 -9 -9 -14 -22 -13 -13 1 -58 2
-102 1 -69 -1 -77 -3 -66 -16 14 -17 22 -222 10 -230 -4 -3 -8 1 -7 8 2 65 -1
64 -80 -23 -43 -47 -93 -100 -110 -119 -20 -20 -30 -39 -25 -46 4 -7 112 -120
240 -252 206 -212 237 -240 265 -240 18 0 58 -3 89 -5 31 -3 69 -3 83 -1 21 5
23 8 13 20 -7 9 -13 45 -13 85 -1 64 1 71 21 78 12 5 26 15 31 23 4 9 62 72
127 142 172 182 159 164 139 188 -10 12 -52 55 -93 97 -41 42 -148 152 -238
243 -89 92 -166 167 -170 167 -4 0 -27 -21 -50 -46z m-212 -344 c0 -5 -4 -10
-10 -10 -5 0 -10 5 -10 10 0 6 5 10 10 10 6 0 10 -4 10 -10z m-5 -91 c1 -32
-3 -59 -6 -59 -4 0 -7 29 -6 64 2 80 12 76 12 -5z"/>
</g>
</svg>
